<svg width="20" height="20" viewBox="0 0 20 20" fill="none" xmlns="http://www.w3.org/2000/svg">
    <path d="M16 6H4C2.89543 6 2 6.89543 2 8V15C2 16.1046 2.89543 17 4 17H16C17.1046 17 18 16.1046 18 15V8C18 6.89543 17.1046 6 16 6Z" stroke="#7D8590" stroke-width="2" stroke-linecap="round" stroke-linejoin="round"/>
    <path d="M14 6V4C14 3.46957 13.7893 2.96086 13.4142 2.58579C13.0391 2.21071 12.5304 2 12 2H8C7.46957 2 6.96086 2.21071 6.58579 2.58579C6.21071 2.96086 6 3.46957 6 4V6" stroke="#7D8590" stroke-width="2" stroke-linecap="round" stroke-linejoin="round"/>
</svg> 